General
      Complete name : Citizen.Kane.1941.DVDRip.H264.AAC.Gopo.mp4
      Format : MPEG-4
      Format profile : Base Media
      Codec ID : isom
      File size : 1.01 GiB
      Duration : 1h 59mn
      Overall bit rate : 1 206 Kbps
      Encoded date : UTC 2010-01-10 21:09:32
      Tagged date : UTC 2010-01-10 21:09:32
      Writing application : Yamb 2.1.0.0 [http://yamb.unite-video.com]
   Video #1
      ID : 1
      Format : AVC
      Format/Info : Advanced Video Codec
      Format profile : High@L4.1
      Format settings, CABAC : Yes
      Format settings, ReFrames : 5 frames
      Codec ID : avc1
      Codec ID/Info : Advanced Video Coding
      Duration : 1h 59mn
      Bit rate mode : Variable
      Bit rate : 1 010 Kbps
      Maximum bit rate : 5 586 Kbps
      Width : 656 pixels
      Height : 480 pixels
      Display aspect ratio : 4:3
      Frame rate mode : Constant
      Frame rate : 29.970 fps
      Resolution : 24 bits
      Colorimetry : 4:2:0
      Scan type : Progressive
      Bits/(Pixel*Frame) : 0.107
      Stream size : 863 MiB (84%)
      Writing library : x264 core 80 r1376 3feaec2
      Encoding settings : cabac=1 / ref=5 / deblock=1:0:0 / analyse=0x3:0x113 / me=umh / subme=8 / psy=1 / psy_rd=1.0:0.0 / mixed_ref=1 / me_range=16 / chroma_me=1 / trellis=2 / 8x8dct=1 / cqm=0 / deadzone=21,11 / fast_pskip=1 / chroma_qp_offset=-2 / threads=3 / sliced_threads=0 / nr=0 / decimate=1 / mbaff=0 / constrained_intra=0 / bframes=3 / b_pyramid=0 / b_adapt=2 / b_bias=0 / direct=3 / wpredb=1 / wpredp=2 / keyint=250 / keyint_min=25 / scenecut=40 / rc_lookahead=30 / rc=2pass / mbtree=1 / bitrate=1010 / ratetol=1.0 / qcomp=0.50 / qpmin=10 / qpmax=51 / qpstep=4 / cplxblur=20.0 / qblur=0.5 / vbv_maxrate=24000 / vbv_bufsize=24000 / ip_ratio=1.10 / aq=1:1.00
      Encoded date : UTC 2010-01-10 11:09:42
      Tagged date : UTC 2010-01-10 21:12:31
   Audio #2
      ID : 2
      Format : AAC
      Format/Info : Advanced Audio Codec
      Format version : Version 4
      Format profile : LC
      Format settings, SBR : No
      Codec ID : 40
      Duration : 1h 59mn
      Bit rate mode : Variable
      Bit rate : 192 Kbps
      Maximum bit rate : 225 Kbps
      Channel(s) : 2 channels
      Channel positions : L R
      Sampling rate : 48.0 KHz
      Resolution : 16 bits
      Stream size : 164 MiB (16%)
      Encoded date : UTC 2010-01-10 21:12:09
      Tagged date : UTC 2010-01-10 21:12:31
	Sample : YES
	Subtitle : English,Romanian

PLOT

It's 1941, and newspaper tycoon Charles Foster Kane (Orson Welles, who also directed and co-wrote the script) is dead. The opening shots show Xanadu, Kane's vast, elaborate, now unkempt estate in Florida. Interspersed with segments of his newsreel obituary are scenes from his life and death. Most puzzling are his last moments: clutching a snowglobe, he mutters "rosebud." Kane, whose life was news and whose newspapers not only reported but formed public opinion, was central to his time, a larger-than-life figure. The newsreel editor feels that until they know who or what Rosebud is they won't have the whole story on Kane. He assigns a reporter called Thompson (William Alland) to find Rosebud.
Director: Orson Welles
CASTING 
     
      Joseph Cotten	... 	Jedediah Leland
	Orson Welles	... 	Charles Foster Kane
	Dorothy Comingore	... 	Susan Alexander Kane
	Agnes Moorehead	... 	Mary Kane
	Ruth Warrick	... 	Emily Monroe Norton Kane
	Ray Collins	... 	James W. Gettys
	Erskine Sanford	... 	Herbert Carter
	Everett Sloane	... 	Mr. Bernstein
	William Alland	... 	Jerry Thompson
	Paul Stewart	... 	Raymond
	George Coulouris	... 	Walter Parks Thatcher
	Fortunio Bonanova	... 	Signor Matiste
	Gus Schilling	... 	The Headwaiter
	Philip Van Zandt	... 	Mr. Rawlston
	Georgia Backus	... 	Bertha Anderson

SOURCE: Citizen.Kane.1941.NTSC.DVDR-sceneFZ

Notes: For best performance I suggest you to use KMPlayer(find it with google) for playback
I haven't tested the movies on a PS3 or Xbox or other devices than PC because I don't own one of them but feel free to test them if you have the oportunity.
